<?xml version="1.0" encoding="utf-8"?>
<!-- Generator: Adobe Illustrator 16.0.0, SVG Export Plug-In . SVG Version: 6.00 Build 0)  -->
<!DOCTYPE svg PUBLIC "-//W3C//DTD SVG 1.1//EN" "http://www.w3.org/Graphics/SVG/1.1/DTD/svg11.dtd">
<svg version="1.1" id="Layer_1" xmlns="http://www.w3.org/2000/svg" xmlns:xlink="http://www.w3.org/1999/xlink" x="0px" y="0px"
	 width="351.266px" height="351.339px" viewBox="0 0 351.266 351.339" enable-background="new 0 0 351.266 351.339"
	 xml:space="preserve">
<g>
	<path fill="#FE5721" d="M175.434,346.739C80.703,346.343,3.842,269.562,4.605,174.251C5.349,81.393,79.538,7.197,170.694,4.668
		c97.021-2.691,175.687,74.958,175.972,170.402C346.949,269.924,270.27,346.537,175.434,346.739z M174.789,283.767
		c0-0.016,0-0.031,0-0.046c10.921,0,21.842-0.008,32.766,0.002c10.921,0.009,21.845,0.206,32.761-0.005
		c6.992-0.134,12.855-3.043,17.012-8.847c3.891-5.436,5.451-11.676,5.898-18.238c0.51-7.465,0.905-14.938,1.447-22.401
		c0.884-12.15,1.838-24.296,2.781-36.441c0.71-9.156,1.476-18.307,2.167-27.465c0.719-9.528,1.415-19.06,2.04-28.595
		c0.162-2.482,0.196-4.998-0.011-7.473c-0.358-4.262-3.949-7.437-8.211-7.461c-8.635-0.05-17.272-0.081-25.909-0.104
		c-6.067-0.016-12.135-0.022-18.203,0.009c-1.412,0.007-2.198-0.306-2.355-1.977c-0.403-4.313-0.962-8.614-1.579-12.903
		c-1.187-8.266-3.965-16.038-7.961-23.32c-4.062-7.402-9.314-13.792-16.949-17.887c-7.087-3.802-14.542-4.474-22.374-3.118
		c-8.618,1.492-15.466,6.005-20.62,12.717c-9.671,12.595-13.19,27.432-14.346,42.953c-0.259,3.481-0.144,3.52-3.734,3.521
		c-13.492,0.003-26.983-0.01-40.475,0.009c-3.291,0.004-6.416,0.506-8.614,3.375c-1.882,2.458-1.946,5.302-1.73,8.175
		c1,13.29,2.088,26.573,3.047,39.865c0.98,13.588,1.826,27.186,2.771,40.777c0.702,10.097,1.434,20.191,2.221,30.281
		c0.398,5.115,0.442,10.33,1.529,15.306c2.74,12.542,10.502,19.116,21.745,19.227C131.528,283.92,153.16,283.767,174.789,283.767z"
		/>
	<path fill="#FE5721" d="M144.184,126.496c0.245-8.626,1.391-16.956,4.426-24.833c1.825-4.733,4.125-9.425,7.019-13.574
		c6.584-9.445,18.427-12.983,29.327-8.066c4.583,2.068,7.764,5.785,10.489,9.796c5.394,7.938,7.844,17.005,9.422,26.336
		c0.568,3.352,0.918,6.74,1.4,10.342C185.45,126.496,164.965,126.496,144.184,126.496z"/>
	<path fill="#FE5721" d="M178.437,253.706c-12.486-0.01-23.31-4.051-32.99-11.324c-2.937-2.208-2.566-5.333,0.634-6.698
		c1.844-0.787,3.147,0.324,4.467,1.273c4.485,3.227,9.365,5.682,14.626,7.313c8.689,2.699,17.354,3.144,25.876-0.732
		c8.174-3.715,12.269-11.381,10.062-19.225c-1.13-4.015-3.507-7.283-6.896-9.792c-5.025-3.72-10.5-6.577-16.399-8.623
		c-7.203-2.497-14.346-5.105-20.533-9.746c-3.236-2.428-6.004-5.272-7.915-8.866c-4.048-7.613-2.036-17.322,3.82-23.817
		c7.847-8.702,17.805-11.026,29.139-9.217c6.684,1.066,12.839,3.119,18.272,7.234c2.273,1.723,2.668,3.104,1.181,5.342
		c-1.164,1.75-2.967,2.072-5.033,0.584c-4.251-3.064-9.038-4.881-14.084-5.875c-9-1.772-17.11,0.083-23.8,6.713
		c-4.396,4.356-5.814,12.664-1.8,17.613c1.458,1.798,3.167,3.622,5.156,4.718c4.533,2.499,9.181,4.905,14.021,6.71
		c7.164,2.672,14.359,5.212,20.566,9.793c5.745,4.238,10.421,9.408,11.786,16.695c1.552,8.294-0.704,15.479-6.91,21.367
		C195.067,251.425,186.898,253.294,178.437,253.706z"/>
</g>
</svg>
